<svg xmlns="http://www.w3.org/2000/svg" xml:space="preserve" id="Layer_1" x="0" y="0" style="enable-background:new 0 0 916.4 196.8" version="1.1" viewBox="0 0 916.4 196.8"><style>.st0{fill:#43a19e}.st1{fill:#83c455}</style><path d="M171.5 53.4v11.8c0 7.2-5.8 13-13 13h-1.3c-6 0-11.8-4.8-12.7-10.8-.5-3.5-2.6-6.7-5.7-8.5l-28.9-16.7c-16.3-9.4-36.4-9.4-52.7 0l-15 8.6C30 58 22.4 71 22.4 85.1V98c0 4.8-3.9 8.7-8.7 8.7H3.9c-2.1 0-3.9-1.7-3.9-3.9V53.4c0-3.3 1.7-6.3 4.6-7.9L81.2 1.2c2.8-1.6 6.3-1.6 9.2 0L167 45.4c2.7 1.7 4.5 4.7 4.5 8" class="st0"/><path d="M171.5 129.1v14.3c0 3.3-1.7 6.3-4.6 7.9l-76.6 44.2c-2.8 1.6-6.3 1.6-9.2 0L4.6 151.3c-2.8-1.6-4.6-4.7-4.6-7.9v-26.3c0-1.2 1-2.2 2.2-2.2l18-.1c1.2 0 2.2 1 2.2 2.2 0 5.4 1.4 10.6 4.1 15.1 2.6 4.5 6.4 8.4 11.1 11.1L62 157.3c13.4 7.7 29.8 7.7 43.2 0l34.9-20.1c2.1-1.2 3.6-3.2 4.2-5.5v-20.1h-7c-1.2 0-2.1-.9-2.1-2.1v-5.9c0-2.9 2.3-5.2 5.2-5.2h22.2c4.8 0 8.6 3.9 8.6 8.6v19.7c.2.8.3 1.6.3 2.4" class="st1"/><path d="M129.1 97.8h-25.4v-.7c0 1.1-.6 1.5-1.6 1.8-.7.2-1.5.5-2 1.1-1.9 2.3-4.3 3.4-7.3 3.2h-.7c0 .1.1.3.1.4-.6.5-1.1 1.3-1.7 1.4-1.8.4-2.3-.1-2.3-1.9V88.2c0-1.1 0-2.2 1.5-2.3 1.4-.2 1.9.2 2.4 1.9h2c2.3.1 4.1 1.2 5.7 2.9.6.6 1.5 1.1 2.4 1.4.9.3 1.5.7 1.5 1.7v3.3-4.5H124c-2-1.8-3.8-3.8-5.6-5.7-.5-.5-.9-1.2-1.3-1.8.8-.3 1.4-.5 2-.7v-.3c-.6-.2-1.3-.4-1.9-.5-10.2-2-20.4-2.6-30.6-1.9-2.4.2-4.9.4-7.3 1.1-5.1 1.3-9.8 3.7-14.2 6.4-3.4 2.1-6.9 3.2-10.8 3.5-6.4.4-11.8 2.7-16.2 7.5-2 2.2-3.3 4.5-2.1 7.6.2.4.1 1-.1 1.4-.6 1.3-.6 1.7.7 2.4 1.9.9 3.9 1.6 6 2.3.6.2 1.3.2 2.1.3-.8-4.4.3-7.8 4-10.1 3.1-1.9 6.3-1.9 9.4 0 3.6 2.3 4.8 5.7 4 9.8h45c-1.3-7.3 4.3-11.3 8.7-11.2 5.8.1 9.4 4.5 8.8 11.3.6-.2 1-.4 1.4-.6.8-.5 1.6-1.2 2.4-1.5 1-.3 1.4-.9 1.7-1.7 1.3-3.3 1.3-8.4-1-12.4m-80.7-1.3-7.8 7c-.6.5-1.5 0-1.4-.8l.3-1.7c0-.2.2-.5.4-.6 1.6-1 8.7-5.1 8.7-4.8.1.4 0 .7-.2.9m34.4-7.6h4.6v3.5h-5.9c-.3 0-.8-.6-.9-1-.3-2.2-.1-2.5 2.2-2.5m4.6 12.5h-.3v.2h-6c-.2 0-.6-.2-.6-.4-.1-.9-.3-1.8-.1-2.6v-.1c0-.2.4-.4.7-.5.4-.2.9-.3 1.3-.3 1.7-.1 3.3 0 5.1 0v3.7z" class="st1"/><path d="M53.6 105.1c-4 0-7.3 3.4-7.2 7.3 0 3.9 3.4 7.1 7.3 7.1s7.2-2.2 7.1-7.2c-.1-4-3.3-7.2-7.2-7.2m.2 11.5c-2.4 0-4.4-1.9-4.4-4.2 0-2.4 2-4.4 4.3-4.4 2.4 0 4.3 1.9 4.3 4.3 0 2.3-1.9 4.3-4.2 4.3M116.1 105.1c-4 0-7.3 3.4-7.2 7.3 0 3.9 3.4 7.1 7.3 7.1s7.1-3.3 7.1-7.2c-.1-4-3.3-7.2-7.2-7.2m.1 11.5c-2.4 0-4.4-1.9-4.4-4.2 0-2.4 2-4.4 4.3-4.4 2.4 0 4.3 1.9 4.3 4.3.1 2.3-1.8 4.3-4.2 4.3M98.6 94.7c-1.3 1.8-2.5 3.5-3.7 5.2h-.1c.2-1.2.4-2.4.7-3.6h-2.3c1.3-1.8 2.5-3.4 3.7-5.1h.1c-.2 1.2-.4 2.4-.7 3.6h2.3z" class="st1"/><path d="M270.7 82.6c-2.1-1.5-4.4-2.6-6.8-3.5-2.4-.8-5-1.2-7.7-1.2-3.4 0-6.6.7-9.4 2-2.9 1.3-5.3 3.1-7.4 5.3-2 2.2-3.7 4.9-4.8 7.9-1.2 3-1.7 6.2-1.7 9.6 0 3.4.6 6.6 1.7 9.6 1.2 3 2.8 5.6 4.8 7.8s4.5 4 7.4 5.2c2.9 1.3 6 1.9 9.4 1.9 1.4 0 2.9-.1 4.3-.3 1.4-.2 3-.5 4.6-.8v-16.3c0-.8.2-1.4.7-2 .5-.5 1.1-.8 2-.8h16.9c.6 0 1.3.2 2 .7.7.5 1.1 1.2 1.1 2v30.1c0 1.1-.6 2-1.8 2.7-1.9 1.3-4.1 2.5-6.5 3.4-2.4 1-4.8 1.7-7.4 2.4-2.6.6-5.2 1.1-7.8 1.4-2.6.3-5.2.5-7.7.5-4.4 0-8.6-.6-12.6-1.7s-7.8-2.7-11.3-4.8c-3.5-2.1-6.7-4.5-9.6-7.4-2.9-2.9-5.4-6.1-7.4-9.6-2.1-3.5-3.7-7.3-4.8-11.3-1.1-4-1.7-8.3-1.7-12.6 0-4.4.6-8.6 1.7-12.6s2.7-7.8 4.8-11.4c2.1-3.5 4.5-6.8 7.4-9.7 2.9-2.9 6.1-5.4 9.6-7.4s7.3-3.6 11.3-4.8c4-1.1 8.2-1.7 12.6-1.7 5 0 9.7.7 14.1 2.1 4.4 1.4 8.6 3.4 12.5 6 .7.4 1.2 1 1.6 1.6.4.7.3 1.5-.2 2.3l-10.1 14.5c-.5.7-1.1 1.1-1.6 1.3-.6.4-1.3.2-2.2-.4M303.2 74.6c0-.7.2-1.4.5-2 .3-.6.7-1.1 1.1-1.5 1.1-.7 2.2-1.1 3.4-1.1h9.4c.8 0 1.4.1 1.9.4.5.3.8.7 1.1 1.1.3.5.6 1 .8 1.6.2.6.5 1.2.8 1.7.1.2.2.6.5 1.2.2.6.5 1.3.8 2.1.3.8.6 1.5.8 2.2.3.7.4 1.1.5 1.3 1.2-1.4 2.4-2.8 3.6-4.3 1.1-1.5 2.3-2.9 3.6-4.2 1.3-1.3 2.7-2.3 4.3-3.2 1.6-.8 3.4-1.2 5.6-1.2 2.2 0 4.2.2 6 .5 1.8.3 3.4.8 5 1.5 1.6.6 3.1 1.5 4.7 2.5s3.2 2.2 5.1 3.5c2.9 1.5 3.4 3.8 1.6 6.8l-5.7 9.6c-.8 1.2-1.8 2-3 2.3-1.2.3-2.5.1-3.9-.6-1.8-1.7-3.6-3-5.4-3.9-1.8-.8-3.9-1.3-6.3-1.3-1.6 0-3 .2-4.3.7-1.2.5-2.3 1.1-3.3 1.9-1 .8-1.9 1.8-2.8 3-.9 1.2-1.7 2.4-2.6 3.9v45c0 1.6-.4 2.8-1.1 3.6-.8.8-2 1.2-3.8 1.2h-14c-3.2 0-4.8-1.6-4.8-4.8V74.6zM434.7 139.4c-3.6 3.4-7.7 6-12.3 7.9-4.6 1.9-9.4 2.8-14.5 2.8-5.7 0-11-1-16.1-3.1-5.1-2.1-9.5-4.9-13.3-8.6-3.8-3.7-6.8-8-9.1-13-2.2-5-3.4-10.4-3.4-16.2 0-3.6.4-7.2 1.3-10.6.9-3.4 2.2-6.6 3.8-9.6 1.6-3 3.6-5.7 6-8.2 2.3-2.5 5-4.6 7.9-6.4 2.9-1.8 6-3.2 9.4-4.2 3.4-1 7-1.5 10.7-1.5 3.4 0 6.8.5 10 1.4 3.2.9 6.3 2.2 9.1 3.9 2.8 1.7 5.4 3.6 7.8 6 2.4 2.3 4.4 4.9 6.1 7.6 1.7 2.8 3 5.7 3.9 8.8.9 3.1 1.4 6.3 1.4 9.7 0 2.2 0 3.9-.1 5.3s-.4 2.5-1 3.3c-.6.8-1.5 1.4-2.9 1.7-1.3.3-3.3.5-5.9.5H389c.4 2.7 1.3 4.9 2.5 6.6 1.3 1.8 2.7 3.2 4.4 4.3 1.7 1.1 3.4 1.8 5.3 2.3 1.9.5 3.6.7 5.3.7 1.5 0 3-.2 4.6-.5 1.6-.3 3.1-.7 4.6-1.2 1.5-.5 2.8-1.1 4-1.8 1.2-.7 2.2-1.4 3-2.1.7-.5 1.2-.9 1.7-1.2.5-.3 1-.4 1.5-.4s1.1.2 1.6.6c.6.4 1.2.9 1.9 1.6l6.6 7.5c.5.5.7 1 .9 1.5.1.4.2.9.2 1.3 0 .8-.2 1.5-.7 2.1-.5.2-1 .8-1.7 1.2m-29.8-51.7c-1.6 0-3.2.3-4.7 1-1.5.6-2.9 1.5-4.3 2.6-1.3 1.1-2.5 2.3-3.6 3.7-1.1 1.4-1.9 2.8-2.6 4.2h31.7c-.9-1.6-1.8-3.1-2.8-4.5-1-1.4-2.2-2.6-3.5-3.6-1.3-1-2.8-1.8-4.5-2.4s-3.5-1-5.7-1M522.7 139.4c-3.6 3.4-7.7 6-12.3 7.9-4.6 1.9-9.4 2.8-14.5 2.8-5.7 0-11-1-16.1-3.1-5.1-2.1-9.5-4.9-13.3-8.6-3.8-3.7-6.8-8-9.1-13-2.2-5-3.4-10.4-3.4-16.2 0-3.6.4-7.2 1.3-10.6.9-3.4 2.2-6.6 3.8-9.6 1.6-3 3.6-5.7 6-8.2 2.3-2.5 5-4.6 7.9-6.4 2.9-1.8 6-3.2 9.4-4.2 3.4-1 7-1.5 10.7-1.5 3.4 0 6.8.5 10 1.4 3.2.9 6.3 2.2 9.1 3.9 2.8 1.7 5.4 3.6 7.8 6 2.4 2.3 4.4 4.9 6.1 7.6 1.7 2.8 3 5.7 3.9 8.8.9 3.1 1.4 6.3 1.4 9.7 0 2.2 0 3.9-.1 5.3s-.4 2.5-1 3.3c-.6.8-1.5 1.4-2.9 1.7-1.3.3-3.3.5-5.9.5H477c.4 2.7 1.3 4.9 2.5 6.6 1.3 1.8 2.7 3.2 4.4 4.3 1.7 1.1 3.4 1.8 5.3 2.3 1.9.5 3.6.7 5.3.7 1.5 0 3-.2 4.6-.5 1.6-.3 3.1-.7 4.6-1.2 1.5-.5 2.8-1.1 4-1.8 1.2-.7 2.2-1.4 2.9-2.1.7-.5 1.2-.9 1.7-1.2.5-.3 1-.4 1.5-.4s1.1.2 1.6.6 1.2.9 1.9 1.6l6.6 7.5c.5.5.7 1 .9 1.5.1.4.2.9.2 1.3 0 .8-.2 1.5-.7 2.1-.5.2-1 .8-1.6 1.2m-29.9-51.7c-1.6 0-3.2.3-4.7 1s-2.9 1.5-4.3 2.6c-1.3 1.1-2.5 2.3-3.6 3.7-1.1 1.4-1.9 2.8-2.6 4.2h31.7c-.9-1.6-1.8-3.1-2.8-4.5-1-1.4-2.2-2.6-3.5-3.6-1.3-1-2.8-1.8-4.5-2.4s-3.4-1-5.7-1M546.2 71.1c.5-.5 1.1-.7 1.7-.9.6-.1 1.2-.2 1.7-.2h9.4c.7 0 1.4.1 1.9.4.5.3 1 .6 1.4 1.1.4.5.7 1 .9 1.5.2.6.4 1.2.7 1.8l1.9 7.9c.6-1.3 1.5-2.7 2.7-4.4 1.2-1.6 2.7-3.2 4.5-4.6 1.8-1.4 4-2.6 6.5-3.6s5.4-1.5 8.7-1.5c4.7 0 9 .9 12.9 2.7 3.9 1.8 7.1 4.3 9.8 7.4 2.7 3.1 4.8 6.8 6.3 11s2.2 8.7 2.2 13.4v40.7c0 1.6-.3 2.8-1 3.6-.7.8-1.8 1.2-3.3 1.2h-14.3c-1.8 0-3-.3-3.7-.9-.7-.6-1-1.8-1-3.5V104c0-1.8-.4-3.5-1.2-5.1-.8-1.6-1.9-3-3.2-4.2-1.3-1.2-2.8-2.2-4.5-2.9-1.7-.7-3.4-1.1-5.1-1.1-1.5 0-3 .3-4.6 1-1.6.7-3 1.6-4.3 2.8-1.3 1.2-2.4 2.6-3.3 4.2-.9 1.6-1.4 3.3-1.5 5.2v40.4c0 .7-.1 1.4-.4 2.1-.3.7-.7 1.2-1.2 1.6-.5.3-1 .6-1.5.7-.5.1-1 .2-1.6.2h-14c-1.8 0-3.1-.4-3.8-1.3-.8-.9-1.2-2-1.2-3.5V74.6c0-.8.2-1.5.5-2.2.4-.7.8-1.2 1.5-1.5l-.5.2z" class="st0"/><path d="M662.2 147.5c-.5-.7-.9-1.5-1.2-2.3-.4-.8-.7-1.6-1-2.4l-31.9-83.4c0-.2 0-.4-.1-.6-.1-.2-.1-.3-.1-.5 0-1.2.8-1.7 2.3-1.7h20c1.6 0 2.6.8 3.2 2.4l18.9 56.5c1.7-4.7 3.3-9.4 4.9-14.1 1.6-4.7 3.1-9.4 4.6-14.1 1.5-4.7 3-9.4 4.6-14.1 1.6-4.7 3.2-9.4 4.9-14.1.6-1.6 1.7-2.4 3.4-2.4h19.6c1 0 1.6.2 2 .5.4.4.6.8.6 1.4 0 .3 0 .6-.1.7v.2l-32 83.4c-.2.6-.5 1.2-.7 1.9-.3.7-.6 1.4-1 2-.4.6-.8 1.1-1.3 1.5-.5.4-1.1.6-1.7.6h-15.3c-1.3 0-2.1-.5-2.6-1.4M783 139.4c-3.6 3.4-7.7 6-12.3 7.9-4.6 1.9-9.4 2.8-14.5 2.8-5.7 0-11-1-16.1-3.1-5.1-2.1-9.5-4.9-13.3-8.6-3.8-3.7-6.8-8-9.1-13-2.2-5-3.4-10.4-3.4-16.2 0-3.6.4-7.2 1.3-10.6.9-3.4 2.2-6.6 3.8-9.6 1.6-3 3.6-5.7 6-8.2 2.3-2.5 5-4.6 7.9-6.4 2.9-1.8 6-3.2 9.4-4.2 3.4-1 7-1.5 10.7-1.5 3.4 0 6.8.5 10 1.4 3.2.9 6.3 2.2 9.1 3.9 2.8 1.7 5.4 3.6 7.8 6s4.4 4.9 6.1 7.6c1.7 2.8 3 5.7 3.9 8.8.9 3.1 1.4 6.3 1.4 9.7 0 2.2 0 3.9-.1 5.3s-.4 2.5-1 3.3c-.6.8-1.5 1.4-2.9 1.7-1.3.3-3.3.5-5.9.5h-44.7c.4 2.7 1.3 4.9 2.5 6.6 1.3 1.8 2.7 3.2 4.4 4.3 1.7 1.1 3.4 1.8 5.3 2.3 1.9.5 3.6.7 5.3.7 1.5 0 3-.2 4.6-.5 1.6-.3 3.1-.7 4.6-1.2 1.5-.5 2.8-1.1 4-1.8 1.2-.7 2.2-1.4 2.9-2.1.7-.5 1.2-.9 1.7-1.2.5-.3 1-.4 1.5-.4s1.1.2 1.6.6 1.2.9 1.9 1.6l6.6 7.5c.5.5.7 1 .9 1.5.1.4.2.9.2 1.3 0 .8-.2 1.5-.7 2.1-.3.2-.8.8-1.4 1.2m-29.9-51.7c-1.6 0-3.2.3-4.7 1-1.5.6-2.9 1.5-4.3 2.6-1.3 1.1-2.5 2.3-3.6 3.7-1.1 1.4-1.9 2.8-2.6 4.2h31.7c-.9-1.6-1.8-3.1-2.8-4.5-1-1.4-2.2-2.6-3.5-3.6-1.3-1-2.8-1.8-4.5-2.4s-3.5-1-5.7-1M870.9 139.4c-3.6 3.4-7.7 6-12.3 7.9-4.6 1.9-9.4 2.8-14.5 2.8-5.7 0-11-1-16.1-3.1-5.1-2.1-9.5-4.9-13.3-8.6-3.8-3.7-6.8-8-9.1-13-2.2-5-3.4-10.4-3.4-16.2 0-3.6.4-7.2 1.3-10.6.9-3.4 2.2-6.6 3.8-9.6 1.6-3 3.6-5.7 6-8.2 2.3-2.5 5-4.6 7.9-6.4 2.9-1.8 6-3.2 9.4-4.2 3.4-1 7-1.5 10.7-1.5 3.4 0 6.8.5 10 1.4 3.2.9 6.3 2.2 9.1 3.9 2.8 1.7 5.4 3.6 7.8 6 2.4 2.3 4.4 4.9 6.1 7.6 1.7 2.8 3 5.7 3.9 8.8.9 3.1 1.4 6.3 1.4 9.7 0 2.2 0 3.9-.1 5.3s-.4 2.5-1 3.3c-.6.8-1.5 1.4-2.9 1.7-1.3.3-3.3.5-5.9.5H825c.4 2.7 1.3 4.9 2.5 6.6 1.3 1.8 2.7 3.2 4.4 4.3 1.7 1.1 3.4 1.8 5.3 2.3 1.9.5 3.6.7 5.3.7 1.5 0 3-.2 4.6-.5 1.6-.3 3.1-.7 4.6-1.2 1.5-.5 2.8-1.1 4-1.8 1.2-.7 2.2-1.4 2.9-2.1.7-.5 1.2-.9 1.7-1.2.5-.3 1-.4 1.5-.4s1.1.2 1.6.6 1.2.9 1.9 1.6l6.6 7.5c.5.5.7 1 .9 1.5.1.4.2.9.2 1.3 0 .8-.2 1.5-.7 2.1-.2.2-.8.8-1.4 1.2M841 87.7c-1.6 0-3.2.3-4.7 1-1.5.6-2.9 1.5-4.3 2.6-1.3 1.1-2.5 2.3-3.6 3.7-1.1 1.4-1.9 2.8-2.6 4.2h31.7c-.9-1.6-1.8-3.1-2.8-4.5-1-1.4-2.2-2.6-3.5-3.6-1.3-1-2.8-1.8-4.5-2.4-1.5-.7-3.4-1-5.7-1M892.8 51.3c0-1.3.3-2.4 1-3.4.7-.9 1.8-1.4 3.4-1.4h15.2c.4 0 .8.1 1.3.3.5.2.9.5 1.3 1 .4.4.7.9 1 1.5.3.6.4 1.2.4 1.9V144c0 1.6-.4 2.8-1.3 3.6-.9.8-2 1.2-3.4 1.2h-14.4c-1.6 0-2.8-.4-3.4-1.2-.7-.8-1-2-1-3.6V51.3z" class="st1"/></svg>